<svg width="800" height="800" viewBox="0 0 800 800" fill="none" xmlns="http://www.w3.org/2000/svg">
<g clip-path="url(#clip0_1_2)">
<path fill-rule="evenodd" clip-rule="evenodd" d="M600 100V150H568.275L608.68 300.751C612.087 300.436 615.523 300.218 618.984 300.101L625 300C721.65 300 800 378.35 800 475C800 571.65 721.65 650 625 650C528.35 650 450 571.65 450 475C450 401.301 495.558 338.242 560.048 312.45L553.525 288.075L302.662 355.302C330.743 385.24 348.415 425.059 349.899 468.984L350 475C350 571.65 271.65 650 175 650C78.3502 650 0 571.65 0 475C0 378.35 78.3502 300 175 300C195.888 300 215.921 303.66 234.494 310.373L204.9 200H150V150H300V200H256.675L285.65 308.1L540.575 239.775L516.525 150H425V100L600 100Z" fill="#F83641"/>
</g>
<defs>
<clipPath id="clip0_1_2">
<rect width="800" height="800" fill="white"/>
</clipPath>
</defs>
</svg>
