<svg width="800" height="800" viewBox="0 0 800 800" fill="none" xmlns="http://www.w3.org/2000/svg">
<g clip-path="url(#clip0_1_6)">
<path d="M465.5 -2.70456e-05C461.188 -0.500027 456.875 0.749973 453.5 3.49997C450.125 6.24997 448.375 10.1875 448 14.5L445 50.5H347.5L344 15C343.125 6.56247 336.25 0.562474 327.5 0.999973L210 5.99997C205.625 6.18748 201.875 8.18748 199 11.5C196.125 14.8125 194.562 19.625 195 24L198.5 57L91 76.5C82.5 78.0625 76.6875 85.9375 78 94.5L107 288H64C59 288 54 290.5 51 294.5C48 298.5 47.125 303.687 48.5 308.5L183 788.5C184.938 795.375 191.312 800 198.5 800H601.5C608.687 800 615.062 795.375 617 788.5L751.5 308.5C752.875 303.687 752 298.5 749 294.5C745.937 290.5 741 288 736 288H686.5L713 144C713.812 139.625 712.625 135.062 710 131.5C707.375 127.937 703.375 125.5 699 125L588.5 113L596 30.5C596.812 21.8125 590.625 14.5 582 13.5L465.5 -2.70456e-05ZM313.5 33.5L354.5 427.5C313.75 419.187 284.25 400.375 263 379.5L228.5 37.5L313.5 33.5ZM478.5 33.5L563 43.5L531 385C510.562 403.375 483.312 419.312 447 427L478.5 33.5ZM351 82.5H442.5L414.5 431C409.688 431.312 405.062 432 400 432C395.438 432 391.312 431.75 387 431.5L351 82.5ZM201.5 89L225.5 328.5C217.625 313.062 214.438 301.5 214 300C212.125 293 205.75 288 198.5 288H139.5L112 105L201.5 89ZM585.5 144.5L678.5 155L654 288H601.5C594.312 288 587.875 293.062 586 300C585.437 301.937 580.25 319.625 567 341.5L585.5 144.5Z" fill="#FB7D08"/>
</g>
<defs>
<clipPath id="clip0_1_6">
<rect width="800" height="800" fill="white"/>
</clipPath>
</defs>
</svg>
